# xmcd
#
# Track frame offsets: 
#        150
#        10981
#        29902
#        39638
#        50464
#        61674
#        73644
#        84327
#        98600
#        107229
#        120642
#        128714
#        138793
#        148942
#        160229
#
# Disc length: 2264 seconds
#
# Revision: 0
# Processed by: cddbd v1.5.2PL0 Copyright (c) Steve Scherf et al.
# Submitted via: ExactAudioCopyFreeDBPlugin 1.0
#
DISCID=cd08d60f
DTITLE=Larry Robichaud - Noël avec Larry Robichaud
DYEAR=2006
DGENRE=Country
TTITLE0=Un Noël country (avec Simone Aubé)
TTITLE1=Les douze coups de Noël
TTITLE2=Un sauveur nous est né
TTITLE3=Je voudrais dans mon bas
TTITLE4=Noël de l'orphelin
TTITLE5=Tous les enfants de la terre
TTITLE6=Tombe la neige
TTITLE7=Amusons-nous (avec Simon Aubé)
TTITLE8=Le lendemain d'la veille
TTITLE9=Levons nos verres
TTITLE10=Noël est arrivé
TTITLE11=Un matin de campagne
TTITLE12=Si le Père Noël
TTITLE13=L'arbre de Noël
TTITLE14=Noël du cowboy
EXTD=
EXTT0=
EXTT1=
EXTT2=
EXTT3=
EXTT4=
EXTT5=
EXTT6=
EXTT7=
EXTT8=
EXTT9=
EXTT10=
EXTT11=
EXTT12=
EXTT13=
EXTT14=
PLAYORDER=
